# xmcd
#
# Track frame offsets:
#	150
#	13645
#	25496
#	38893
#	53558
#	66725
#	79830
#	92077
#	102009
#	114479
#	127972
#	140466
#	153230
#	165276
#	177626
#	190077
#	204431
#	218594
#
# Disc length: 3104 seconds
#
# Revision: 1
# Processed by: cddbd v1.5.1PL0 Copyright (c) Steve Scherf et al.
# Submitted via: audiograbber 1.83.01
#
DISCID=ee0c1e12
DTITLE=div - Country History#1
DYEAR=2005
DGENRE=Country
TTITLE0=Carter and Joung - A Lady Farmer Boy
TTITLE1=Jackson Country Barns Owls - Bake That Chicken Pie
TTITLE2=Jimmie Rodgers - Blue Yodel No. 8
TTITLE3=Yellow Jackets - Huskin' Bee
TTITLE4=Jackson Country Barns Owls - I Wonder How
TTITLE5=The Carter Family - John Hardy
TTITLE6=Walker's Corbin Ramblers - Ned Went-A-Fishin'
TTITLE7=Cliff Carlisle - Pan American Man
TTITLE8=Kentucky Ramblers - With My Mother
TTITLE9=Dave and Howard - Serves 'em Fine
TTITLE10=Jimmie Rodgers - My Good Gal's Gone
TTITLE11=Dave and Howard - My Bones Gonna Rise Again
TTITLE12=Jimmie Rodgers - Let Me Be Your Slide Track
TTITLE13=Woodie Brothers - Like Likker Better Than Me
TTITLE14=Renfro Valley Boys - Who's Gonna Shoe Your Pretty Little Feet
TTITLE15=Jimmie Davis - Rockin' Blues
TTITLE16=Jimmie Rodgers - No Hard Times
TTITLE17=Fort Worth Doughboys - Nancy Jane
EXTD=
EXTT0=
EXTT1=
EXTT2=
EXTT3=
EXTT4=
EXTT5=
EXTT6=
EXTT7=
EXTT8=
EXTT9=
EXTT10=
EXTT11=
EXTT12=
EXTT13=
EXTT14=
EXTT15=
EXTT16=
EXTT17=
PLAYORDER=
